<svg width="368" height="274" viewBox="0 0 368 274" fill="none" xmlns="http://www.w3.org/2000/svg">
<rect width="367.094" height="273.469" transform="translate(0.671875 0.359375)" fill="#D9D9CA"/>
<rect width="143.984" height="27" transform="translate(112.219 123.594)" fill="black"/>
<path d="M113.323 131.882V130.426H114.923V131.882H113.323ZM111.419 144.682L111.323 143.674L112.011 143.61C112.992 143.524 113.483 142.932 113.483 141.834V133.818H114.779V141.706C114.779 142.634 114.56 143.338 114.123 143.818C113.685 144.298 113.013 144.57 112.107 144.634L111.419 144.682ZM120.448 141.738C119.691 141.738 119.035 141.572 118.48 141.242C117.925 140.911 117.493 140.447 117.184 139.85C116.885 139.242 116.736 138.527 116.736 137.706C116.736 136.884 116.885 136.175 117.184 135.578C117.493 134.97 117.925 134.5 118.48 134.17C119.035 133.839 119.691 133.674 120.448 133.674C121.195 133.674 121.845 133.839 122.4 134.17C122.965 134.5 123.397 134.97 123.696 135.578C124.005 136.175 124.16 136.884 124.16 137.706C124.16 138.527 124.005 139.242 123.696 139.85C123.397 140.447 122.965 140.911 122.4 141.242C121.845 141.572 121.195 141.738 120.448 141.738ZM120.448 140.698C121.173 140.698 121.755 140.442 122.192 139.93C122.629 139.407 122.848 138.666 122.848 137.706C122.848 136.735 122.629 135.994 122.192 135.482C121.755 134.97 121.173 134.714 120.448 134.714C119.712 134.714 119.125 134.97 118.688 135.482C118.261 135.994 118.048 136.735 118.048 137.706C118.048 138.666 118.261 139.407 118.688 139.93C119.125 140.442 119.712 140.698 120.448 140.698ZM130.043 141.738C129.424 141.738 128.88 141.599 128.411 141.322C127.952 141.044 127.605 140.666 127.371 140.186V141.594H126.107V130.314H127.403V135.162C127.627 134.703 127.973 134.34 128.443 134.074C128.912 133.807 129.445 133.674 130.043 133.674C130.736 133.674 131.339 133.839 131.851 134.17C132.373 134.49 132.773 134.954 133.051 135.562C133.339 136.159 133.483 136.874 133.483 137.706C133.483 138.527 133.339 139.242 133.051 139.85C132.773 140.447 132.373 140.911 131.851 141.242C131.339 141.572 130.736 141.738 130.043 141.738ZM129.771 140.698C130.496 140.698 131.077 140.442 131.515 139.93C131.952 139.407 132.171 138.666 132.171 137.706C132.171 136.735 131.952 135.994 131.515 135.482C131.077 134.97 130.496 134.714 129.771 134.714C129.045 134.714 128.464 134.97 128.027 135.482C127.589 135.994 127.371 136.735 127.371 137.706C127.371 138.666 127.589 139.407 128.027 139.93C128.464 140.442 129.045 140.698 129.771 140.698ZM138.059 141.738C137.451 141.738 136.875 141.652 136.331 141.482C135.787 141.311 135.339 141.071 134.987 140.762L135.403 139.85C135.787 140.159 136.208 140.388 136.667 140.538C137.136 140.676 137.611 140.746 138.091 140.746C138.699 140.746 139.157 140.634 139.467 140.41C139.776 140.186 139.931 139.882 139.931 139.498C139.931 139.199 139.829 138.964 139.627 138.794C139.424 138.612 139.104 138.474 138.667 138.378L137.211 138.058C135.888 137.77 135.227 137.087 135.227 136.01C135.227 135.306 135.504 134.74 136.059 134.314C136.624 133.887 137.36 133.674 138.267 133.674C138.8 133.674 139.307 133.759 139.787 133.93C140.277 134.09 140.683 134.33 141.003 134.65L140.571 135.562C140.261 135.274 139.899 135.055 139.483 134.906C139.077 134.746 138.672 134.666 138.267 134.666C137.669 134.666 137.216 134.783 136.907 135.018C136.597 135.252 136.443 135.562 136.443 135.946C136.443 136.543 136.837 136.927 137.627 137.098L139.083 137.402C139.765 137.551 140.283 137.791 140.635 138.122C140.987 138.442 141.163 138.879 141.163 139.434C141.163 140.148 140.88 140.714 140.315 141.13C139.749 141.535 138.997 141.738 138.059 141.738ZM149.695 141.738C149.162 141.738 148.682 141.636 148.255 141.434C147.839 141.22 147.509 140.932 147.263 140.57C147.018 140.207 146.895 139.802 146.895 139.354C146.895 138.788 147.039 138.34 147.327 138.01C147.626 137.679 148.111 137.444 148.783 137.306C149.466 137.156 150.394 137.082 151.567 137.082H152.079V136.586C152.079 135.924 151.941 135.45 151.663 135.162C151.397 134.863 150.965 134.714 150.367 134.714C149.898 134.714 149.445 134.783 149.007 134.922C148.57 135.05 148.122 135.263 147.663 135.562L147.215 134.618C147.621 134.33 148.111 134.1 148.687 133.93C149.274 133.759 149.834 133.674 150.367 133.674C151.37 133.674 152.111 133.919 152.591 134.41C153.082 134.9 153.327 135.663 153.327 136.698V141.594H152.111V140.25C151.909 140.708 151.594 141.071 151.167 141.338C150.751 141.604 150.261 141.738 149.695 141.738ZM149.903 140.762C150.543 140.762 151.066 140.543 151.471 140.106C151.877 139.658 152.079 139.092 152.079 138.41V137.93H151.583C150.719 137.93 150.037 137.972 149.535 138.058C149.045 138.132 148.698 138.271 148.495 138.474C148.303 138.666 148.207 138.932 148.207 139.274C148.207 139.711 148.357 140.068 148.655 140.346C148.965 140.623 149.381 140.762 149.903 140.762ZM155.732 141.594V133.818H156.996V135.146C157.252 134.655 157.614 134.287 158.084 134.042C158.553 133.796 159.081 133.674 159.668 133.674C161.513 133.674 162.436 134.698 162.436 136.746V141.594H161.14V136.826C161.14 136.1 160.996 135.572 160.708 135.242C160.43 134.9 159.982 134.73 159.364 134.73C158.649 134.73 158.078 134.954 157.652 135.402C157.236 135.839 157.028 136.426 157.028 137.162V141.594H155.732ZM167.785 141.738C167.092 141.738 166.484 141.572 165.961 141.242C165.449 140.911 165.049 140.447 164.761 139.85C164.484 139.242 164.345 138.527 164.345 137.706C164.345 136.874 164.484 136.159 164.761 135.562C165.049 134.954 165.449 134.49 165.961 134.17C166.484 133.839 167.092 133.674 167.785 133.674C168.393 133.674 168.927 133.807 169.385 134.074C169.855 134.34 170.201 134.708 170.425 135.178V130.314H171.721V141.594H170.457V140.17C170.233 140.66 169.887 141.044 169.417 141.322C168.948 141.599 168.404 141.738 167.785 141.738ZM168.057 140.698C168.783 140.698 169.364 140.442 169.801 139.93C170.239 139.407 170.457 138.666 170.457 137.706C170.457 136.735 170.239 135.994 169.801 135.482C169.364 134.97 168.783 134.714 168.057 134.714C167.321 134.714 166.735 134.97 166.297 135.482C165.871 135.994 165.657 136.735 165.657 137.706C165.657 138.666 165.871 139.407 166.297 139.93C166.735 140.442 167.321 140.698 168.057 140.698ZM178.103 131.882V130.426H179.703V131.882H178.103ZM178.263 141.594V133.818H179.559V141.594H178.263ZM181.982 141.594V133.818H183.246V135.146C183.502 134.655 183.864 134.287 184.334 134.042C184.803 133.796 185.331 133.674 185.918 133.674C187.763 133.674 188.686 134.698 188.686 136.746V141.594H187.39V136.826C187.39 136.1 187.246 135.572 186.958 135.242C186.68 134.9 186.232 134.73 185.614 134.73C184.899 134.73 184.328 134.954 183.902 135.402C183.486 135.839 183.278 136.426 183.278 137.162V141.594H181.982ZM194.195 141.738C193.278 141.738 192.59 141.498 192.131 141.018C191.673 140.527 191.443 139.823 191.443 138.906V134.826H189.923V133.818H191.443V131.434H192.739V133.818H195.203V134.826H192.739V138.778C192.739 139.386 192.867 139.85 193.123 140.17C193.379 140.479 193.795 140.634 194.371 140.634C194.542 140.634 194.713 140.612 194.883 140.57C195.054 140.527 195.209 140.484 195.347 140.442L195.571 141.434C195.433 141.508 195.23 141.578 194.963 141.642C194.697 141.706 194.441 141.738 194.195 141.738ZM200.095 141.738C198.868 141.738 197.898 141.38 197.183 140.666C196.468 139.94 196.111 138.959 196.111 137.722C196.111 136.922 196.271 136.218 196.591 135.61C196.911 134.991 197.348 134.516 197.903 134.186C198.468 133.844 199.119 133.674 199.855 133.674C200.911 133.674 201.738 134.015 202.335 134.698C202.932 135.37 203.231 136.298 203.231 137.482V137.978H197.375C197.418 138.863 197.674 139.54 198.143 140.01C198.612 140.468 199.263 140.698 200.095 140.698C200.564 140.698 201.012 140.628 201.439 140.49C201.866 140.34 202.271 140.1 202.655 139.77L203.103 140.682C202.751 141.012 202.303 141.274 201.759 141.466C201.215 141.647 200.66 141.738 200.095 141.738ZM199.887 134.634C199.151 134.634 198.57 134.863 198.143 135.322C197.716 135.78 197.466 136.383 197.391 137.13H202.111C202.079 136.34 201.871 135.727 201.487 135.29C201.114 134.852 200.58 134.634 199.887 134.634ZM205.107 141.594V133.818H206.371V135.21C206.787 134.271 207.64 133.754 208.931 133.658L209.395 133.61L209.491 134.73L208.675 134.826C207.939 134.89 207.379 135.124 206.995 135.53C206.611 135.924 206.419 136.468 206.419 137.162V141.594H205.107ZM210.841 141.594V133.818H212.105V135.146C212.361 134.655 212.724 134.287 213.193 134.042C213.662 133.796 214.19 133.674 214.777 133.674C216.622 133.674 217.545 134.698 217.545 136.746V141.594H216.249V136.826C216.249 136.1 216.105 135.572 215.817 135.242C215.54 134.9 215.092 134.73 214.473 134.73C213.758 134.73 213.188 134.954 212.761 135.402C212.345 135.839 212.137 136.426 212.137 137.162V141.594H210.841ZM222.559 141.738C221.951 141.738 221.375 141.652 220.831 141.482C220.287 141.311 219.839 141.071 219.487 140.762L219.903 139.85C220.287 140.159 220.708 140.388 221.167 140.538C221.636 140.676 222.111 140.746 222.591 140.746C223.199 140.746 223.657 140.634 223.967 140.41C224.276 140.186 224.431 139.882 224.431 139.498C224.431 139.199 224.329 138.964 224.127 138.794C223.924 138.612 223.604 138.474 223.167 138.378L221.711 138.058C220.388 137.77 219.727 137.087 219.727 136.01C219.727 135.306 220.004 134.74 220.559 134.314C221.124 133.887 221.86 133.674 222.767 133.674C223.3 133.674 223.807 133.759 224.287 133.93C224.777 134.09 225.183 134.33 225.503 134.65L225.071 135.562C224.761 135.274 224.399 135.055 223.983 134.906C223.577 134.746 223.172 134.666 222.767 134.666C222.169 134.666 221.716 134.783 221.407 135.018C221.097 135.252 220.943 135.562 220.943 135.946C220.943 136.543 221.337 136.927 222.127 137.098L223.583 137.402C224.265 137.551 224.783 137.791 225.135 138.122C225.487 138.442 225.663 138.879 225.663 139.434C225.663 140.148 225.38 140.714 224.815 141.13C224.249 141.535 223.497 141.738 222.559 141.738ZM227.638 141.594V130.314H228.934V135.098C229.19 134.628 229.547 134.276 230.006 134.042C230.475 133.796 230.998 133.674 231.574 133.674C233.419 133.674 234.342 134.698 234.342 136.746V141.594H233.046V136.826C233.046 136.1 232.902 135.572 232.614 135.242C232.337 134.9 231.889 134.73 231.27 134.73C230.555 134.73 229.985 134.954 229.558 135.402C229.142 135.839 228.934 136.426 228.934 137.162V141.594H227.638ZM236.572 131.882V130.426H238.172V131.882H236.572ZM236.732 141.594V133.818H238.028V141.594H236.732ZM240.45 144.474V133.818H241.714V135.21C241.949 134.73 242.296 134.356 242.754 134.09C243.224 133.812 243.768 133.674 244.386 133.674C245.08 133.674 245.682 133.839 246.194 134.17C246.717 134.49 247.117 134.954 247.394 135.562C247.682 136.159 247.826 136.874 247.826 137.706C247.826 138.527 247.682 139.242 247.394 139.85C247.117 140.447 246.717 140.911 246.194 141.242C245.682 141.572 245.08 141.738 244.386 141.738C243.789 141.738 243.256 141.604 242.786 141.338C242.317 141.071 241.97 140.703 241.746 140.234V144.474H240.45ZM244.114 140.698C244.84 140.698 245.421 140.442 245.858 139.93C246.296 139.407 246.514 138.666 246.514 137.706C246.514 136.735 246.296 135.994 245.858 135.482C245.421 134.97 244.84 134.714 244.114 134.714C243.389 134.714 242.808 134.97 242.37 135.482C241.933 135.994 241.714 136.735 241.714 137.706C241.714 138.666 241.933 139.407 242.37 139.93C242.808 140.442 243.389 140.698 244.114 140.698ZM252.403 141.738C251.795 141.738 251.219 141.652 250.674 141.482C250.13 141.311 249.683 141.071 249.331 140.762L249.747 139.85C250.131 140.159 250.552 140.388 251.011 140.538C251.48 140.676 251.955 140.746 252.435 140.746C253.043 140.746 253.501 140.634 253.811 140.41C254.12 140.186 254.275 139.882 254.275 139.498C254.275 139.199 254.173 138.964 253.971 138.794C253.768 138.612 253.448 138.474 253.011 138.378L251.555 138.058C250.232 137.77 249.571 137.087 249.571 136.01C249.571 135.306 249.848 134.74 250.403 134.314C250.968 133.887 251.704 133.674 252.611 133.674C253.144 133.674 253.651 133.759 254.131 133.93C254.621 134.09 255.027 134.33 255.347 134.65L254.915 135.562C254.605 135.274 254.243 135.055 253.827 134.906C253.421 134.746 253.016 134.666 252.611 134.666C252.013 134.666 251.56 134.783 251.251 135.018C250.941 135.252 250.787 135.562 250.787 135.946C250.787 136.543 251.181 136.927 251.971 137.098L253.427 137.402C254.109 137.551 254.627 137.791 254.979 138.122C255.331 138.442 255.507 138.879 255.507 139.434C255.507 140.148 255.224 140.714 254.659 141.13C254.093 141.535 253.341 141.738 252.403 141.738Z" fill="black"/>
</svg>
