<svg width="13" height="14" viewBox="0 0 13 14" fill="none" xmlns="http://www.w3.org/2000/svg">
<path d="M3.1875 13.0312H0.644531V4.85547H3.1875V13.0312ZM1.90234 3.76172C1.10938 3.76172 0.453125 3.07812 0.453125 2.25781C0.453125 1.46484 1.10938 0.808594 1.90234 0.808594C2.72266 0.808594 3.37891 1.46484 3.37891 2.25781C3.37891 3.07812 2.72266 3.76172 1.90234 3.76172ZM12.6758 13.0312H10.1602V9.06641C10.1602 8.10938 10.1328 6.90625 8.82031 6.90625C7.50781 6.90625 7.31641 7.91797 7.31641 8.98438V13.0312H4.77344V4.85547H7.20703V5.97656H7.23438C7.58984 5.34766 8.41016 4.66406 9.64062 4.66406C12.2109 4.66406 12.7031 6.35938 12.7031 8.54688V13.0312H12.6758Z" fill="black"/>
</svg>
